<svg width="24" height="24" viewBox="0 0 24 24" fill="none" xmlns="http://www.w3.org/2000/svg">
<g id="material-symbols-light:person-outline">
<path id="Vector" d="M12 11.385C11.1753 11.385 10.469 11.091 9.881 10.503C9.293 9.91501 8.99933 9.20901 9 8.38501C9.00067 7.56101 9.29433 6.85435 9.881 6.26501C10.4677 5.67568 11.174 5.38268 12 5.38601C12.826 5.38935 13.5323 5.68268 14.119 6.26601C14.7057 6.84935 14.9993 7.55601 15 8.38601C15.0007 9.21601 14.707 9.92201 14.119 10.504C13.531 11.086 12.8247 11.379 12 11.385ZM5 18.616V16.97C5 16.5573 5.12 16.1713 5.36 15.812C5.60067 15.452 5.924 15.1727 6.33 14.974C7.274 14.5213 8.21867 14.182 9.164 13.956C10.1087 13.7293 11.054 13.616 12 13.616C12.946 13.616 13.8917 13.7293 14.837 13.956C15.7823 14.1827 16.7263 14.522 17.669 14.974C18.0757 15.1727 18.399 15.452 18.639 15.812C18.8797 16.1713 19 16.5573 19 16.97V18.616H5ZM6 17.616H18V16.97C18 16.7487 17.9283 16.5403 17.785 16.345C17.6423 16.1503 17.4447 15.9857 17.192 15.851C16.3693 15.4523 15.5207 15.147 14.646 14.935C13.7713 14.723 12.8893 14.6167 12 14.616C11.1107 14.6153 10.2287 14.7213 9.354 14.934C8.47933 15.1467 7.63067 15.452 6.808 15.85C6.55467 15.9847 6.357 16.1493 6.215 16.344C6.07167 16.5393 6 16.748 6 16.97V17.616ZM12 10.386C12.55 10.386 13.021 10.19 13.413 9.79801C13.805 9.40601 14.0007 8.93468 14 8.38401C13.9993 7.83335 13.8037 7.36268 13.413 6.97201C13.0223 6.58135 12.5513 6.38535 12 6.38401C11.4487 6.38268 10.978 6.57868 10.588 6.97201C10.198 7.36535 10.002 7.83601 10 8.38401C9.998 8.93201 10.194 9.40301 10.588 9.79701C10.982 10.191 11.4527 10.3867 12 10.384" fill="black"/>
</g>
</svg>
